<?xml version="1.0" encoding="UTF-8"?>
<svg id="Layer_1" xmlns="http://www.w3.org/2000/svg" version="1.1" viewBox="0 0 922.7 927.3">
  <!-- Generator: Adobe Illustrator 29.6.1, SVG Export Plug-In . SVG Version: 2.1.1 Build 9)  -->
  <defs>
    <style>
      .st0 {
        fill: #f5861f;
      }

      .st1 {
        fill: #08253e;
      }

      .st2 {
        fill: #f7c31b;
      }
    </style>
  </defs>
  <path class="st2" d="M166.4,145.1C196.1,65.5,270.1,9.1,354.9,1.1c213.4-20.2,331.3,240.8,169.5,387.5-3.5,3.2-9.3,6.5-12.4,9.4s-.9.7-.6,2.1c22.7,8.6,45.9,16.1,69.8,20.7,64.4,12.5,136.1,9.3,187.2-36.2,10.4-9.3,15.7-18.5,24-29,8.6-10.8,25.4-33.2,40.3-27.3s16,11,18.2,12.8c56.8,47.7,74.1,136.8,71.6,207.5-6,165.7-87.9,288.9-244.8,345.2-93.2,33.5-187.7,35.7-285.8,32.3-137.6-4.8-282.2-56.3-356.9-178.1-40.6-66.2-44.6-171.1-18.6-243.4,27.8-77.4,93.9-138,171-164.5l-12-22c5.5-.4,19.8-6.6,25.4-9.1,41.8-19.5,47.9-53.3,25.1-91.8-6.8-11.4-14.5-24.3-21.6-35.4-5.4-8.5-27.8-36.7-37.8-36.7h-.1ZM295.2,129.3c-43.5,3.1-46.9,88.1-3.4,83.7,41.4-4.3,45.5-86.6,3.4-83.7Z"/>
  <path class="st0" d="M166.4,145.1c10,0,32.4,28.1,37.8,36.7,7.1,11.1,14.8,24,21.6,35.4,22.9,38.5,16.8,72.3-25.1,91.8-5.5,2.6-19.9,8.7-25.4,9.1-10,.8-24.8-10.8-32.5-17-32-26-86.1-104.1-80.4-146.4,2.5-18.5,6.8-22,16.5-23.5,14.7-2.4,24,8.7,35.7,14.1,11.3,5.2,33.4,8.5,45,3.6"/>
  <path class="st1" d="M295.2,129.3c42.1-3,38,79.4-3.4,83.7-43.4,4.5-40-80.6,3.4-83.7Z"/>
</svg>